<svg width="30" height="30" viewBox="0 0 30 30" fill="none" xmlns="http://www.w3.org/2000/svg">
<path d="M10.8053 23H7.2808V11.6502H10.8053V23ZM9.04114 10.102C7.91413 10.102 7 9.16851 7 8.0415C7 7.50016 7.21505 6.98099 7.59784 6.5982C7.98062 6.21541 8.49979 6.00037 9.04114 6.00037C9.58248 6.00037 10.1017 6.21541 10.4844 6.5982C10.8672 6.98099 11.0823 7.50016 11.0823 8.0415C11.0823 9.16851 10.1678 10.102 9.04114 10.102ZM23.9962 23H20.4793V17.475C20.4793 16.1582 20.4528 14.4696 18.6469 14.4696C16.8145 14.4696 16.5337 15.9002 16.5337 17.3801V23H13.013V11.6502H16.3933V13.1984H16.4426C16.9131 12.3067 18.0625 11.3656 19.7773 11.3656C23.3443 11.3656 24 13.7145 24 16.7654V23H23.9962Z" fill="#F4EEEA"/>
<circle cx="15" cy="15" r="14.5" stroke="#F4EEEA"/>
</svg>
