<svg width="30" height="30" viewBox="0 0 30 30" fill="none" xmlns="http://www.w3.org/2000/svg">
<circle cx="15" cy="15" r="14.5" stroke="#F4EEEA"/>
<g clip-path="url(#clip0_92_39)">
<path d="M15.004 10.6651C12.4486 10.6651 10.3875 12.7262 10.3875 15.2816C10.3875 17.8369 12.4486 19.8981 15.004 19.8981C17.5593 19.8981 19.6205 17.8369 19.6205 15.2816C19.6205 12.7262 17.5593 10.6651 15.004 10.6651ZM15.004 18.2829C13.3526 18.2829 12.0026 16.9369 12.0026 15.2816C12.0026 13.6262 13.3486 12.2802 15.004 12.2802C16.6593 12.2802 18.0053 13.6262 18.0053 15.2816C18.0053 16.9369 16.6553 18.2829 15.004 18.2829V18.2829ZM20.8861 10.4762C20.8861 11.0749 20.404 11.553 19.8093 11.553C19.2107 11.553 18.7326 11.0709 18.7326 10.4762C18.7326 9.88158 19.2147 9.39943 19.8093 9.39943C20.404 9.39943 20.8861 9.88158 20.8861 10.4762ZM23.9437 11.5691C23.8754 10.1267 23.5459 8.84899 22.4892 7.79631C21.4366 6.74363 20.1589 6.41417 18.7165 6.34185C17.2299 6.25747 12.7741 6.25747 11.2875 6.34185C9.84907 6.41015 8.57139 6.73961 7.51469 7.79229C6.458 8.84497 6.13255 10.1226 6.06023 11.5651C5.97585 13.0517 5.97585 17.5075 6.06023 18.9941C6.12853 20.4365 6.458 21.7142 7.51469 22.7668C8.57139 23.8195 9.84505 24.149 11.2875 24.2213C12.7741 24.3057 17.2299 24.3057 18.7165 24.2213C20.1589 24.153 21.4366 23.8235 22.4892 22.7668C23.5419 21.7142 23.8714 20.4365 23.9437 18.9941C24.0281 17.5075 24.0281 13.0557 23.9437 11.5691V11.5691ZM22.0232 20.5892C21.7098 21.3767 21.1031 21.9834 20.3116 22.3008C19.1263 22.7709 16.3138 22.6624 15.004 22.6624C13.6942 22.6624 10.8776 22.7668 9.69639 22.3008C8.90889 21.9874 8.30219 21.3807 7.98478 20.5892C7.51469 19.4039 7.62318 16.5914 7.62318 15.2816C7.62318 13.9718 7.51871 11.1552 7.98478 9.97399C8.29818 9.18649 8.90487 8.57979 9.69639 8.26238C10.8817 7.79229 13.6942 7.90077 15.004 7.90077C16.3138 7.90077 19.1303 7.79631 20.3116 8.26238C21.0991 8.57577 21.7058 9.18247 22.0232 9.97399C22.4933 11.1593 22.3848 13.9718 22.3848 15.2816C22.3848 16.5914 22.4933 19.4079 22.0232 20.5892Z" fill="#F4EEEA"/>
</g>
<defs>
<clipPath id="clip0_92_39">
<rect width="18" height="20.5714" fill="white" transform="translate(6 5)"/>
</clipPath>
</defs>
</svg>
