<svg width="30" height="30" viewBox="0 0 30 30" fill="none" xmlns="http://www.w3.org/2000/svg">
<circle cx="15" cy="15" r="14.5" stroke="#F4EEEA"/>
<path d="M23.9441 11.0482C23.9568 11.2259 23.9568 11.4036 23.9568 11.5812C23.9568 17 19.8325 23.2436 12.2944 23.2436C9.97207 23.2436 7.81473 22.571 6 21.4036C6.32996 21.4416 6.64719 21.4543 6.98984 21.4543C8.90605 21.4543 10.67 20.8071 12.0787 19.703C10.2766 19.665 8.76648 18.4848 8.24617 16.8604C8.5 16.8984 8.75379 16.9238 9.02031 16.9238C9.38832 16.9238 9.75637 16.873 10.099 16.7843C8.22082 16.4035 6.81215 14.7538 6.81215 12.7614V12.7107C7.35781 13.0152 7.99238 13.2056 8.66492 13.2309C7.56086 12.4949 6.83754 11.2386 6.83754 9.81723C6.83754 9.05582 7.04055 8.35785 7.3959 7.74871C9.41367 10.236 12.4467 11.8604 15.8477 12.038C15.7842 11.7335 15.7461 11.4163 15.7461 11.099C15.7461 8.84008 17.5736 7 19.8451 7C21.0253 7 22.0913 7.49492 22.84 8.29441C23.7664 8.11676 24.6547 7.7741 25.4416 7.30457C25.137 8.25637 24.4898 9.05586 23.6395 9.56344C24.4644 9.47465 25.2639 9.24617 25.9999 8.92895C25.4416 9.74109 24.7436 10.4644 23.9441 11.0482V11.0482Z" fill="#F4EEEA"/>
</svg>
